<?xml version="1.0" encoding="UTF-8" standalone="no"?>
<svg
   xmlns:dc="http://purl.org/dc/elements/1.1/"
   xmlns:cc="http://creativecommons.org/ns#"
   xmlns:rdf="http://www.w3.org/1999/02/22-rdf-syntax-ns#"
   xmlns:svg="http://www.w3.org/2000/svg"
   xmlns="http://www.w3.org/2000/svg"
   xmlns:sodipodi="http://sodipodi.sourceforge.net/DTD/sodipodi-0.dtd"
   xmlns:inkscape="http://www.inkscape.org/namespaces/inkscape"
   data-v-423bf9ae=""
   viewBox="0 0 60 60"
   class="icon"
   version="1.1"
   id="svg283"
   sodipodi:docname="icon-white.svg"
   inkscape:version="1.0 (6e3e5246a0, 2020-05-07)">
  <metadata
     id="metadata289">
    <rdf:RDF>
      <cc:Work
         rdf:about="">
        <dc:format>image/svg+xml</dc:format>
        <dc:type
           rdf:resource="http://purl.org/dc/dcmitype/StillImage" />
      </cc:Work>
    </rdf:RDF>
  </metadata>
  <defs
     id="defs287">
    <mask
       maskUnits="userSpaceOnUse"
       id="mask456">
      <rect
         style="fill:#ffffff"
         id="rect458"
         width="14.228821"
         height="21.57066"
         x="51.099094"
         y="20.345257" />
    </mask>
    <mask
       maskUnits="userSpaceOnUse"
       id="mask460">
      <rect
         style="fill:#ffffff;stroke-width:0.8"
         id="rect462"
         width="11.383057"
         height="17.256527"
         x="40.879276"
         y="16.276205" />
    </mask>
    <mask
       maskUnits="userSpaceOnUse"
       id="mask472">
      <rect
         style="fill:#ffffff;stroke-width:0.8"
         id="rect474"
         width="16.282255"
         height="15.744446"
         x="-9.2010736"
         y="15.805262" />
    </mask>
  </defs>
  <sodipodi:namedview
     inkscape:document-rotation="0"
     pagecolor="#ffffff"
     bordercolor="#666666"
     borderopacity="1"
     objecttolerance="10"
     gridtolerance="10"
     guidetolerance="10"
     inkscape:pageopacity="0"
     inkscape:pageshadow="2"
     inkscape:window-width="1920"
     inkscape:window-height="1016"
     id="namedview285"
     showgrid="false"
     inkscape:zoom="19.633998"
     inkscape:cx="27.953402"
     inkscape:cy="29.230912"
     inkscape:window-x="0"
     inkscape:window-y="27"
     inkscape:window-maximized="1"
     inkscape:current-layer="g390" />
  <!---->
  <!---->
  <!---->
  <!---->
  <!---->
  <g
     style="display:inline"
     inkscape:label="Layer 1 copiar"
     id="g390"
     inkscape:groupmode="layer">
    <g
       style="fill:#ffffff"
       fill="white"
       stroke="none"
       transform="scale(1.25)"
       id="g388"
       data-v-423bf9ae="">
      <path
         transform="scale(0.8)"
         d="M 25.625 0 A 1.875 1.875 0 0 0 25.625 3.75 L 27.5 3.75 L 27.5 8.9101562 A 21.1275 21.1275 0 0 0 16.857422 13.322266 L 13.207031 9.6699219 L 14.451172 8.2011719 A 1.8756007 1.8756007 0 0 0 11.798828 5.5488281 L 5.6933594 11.798828 A 1.875 1.875 0 0 0 8.34375 14.451172 L 9.671875 13.207031 L 13.320312 16.857422 A 21.125 21.125 0 0 0 8.9101562 27.5 L 3.75 27.5 L 3.75 25.625 A 1.875 1.875 0 0 0 0 25.625 L 0 34.375 A 1.875 1.875 0 0 0 3.75 34.375 L 3.75 32.5 L 8.9101562 32.5 A 21.125 21.125 0 0 0 13.322266 43.142578 L 9.671875 46.792969 L 8.2011719 45.548828 A 1.8756007 1.8756007 0 0 0 5.5488281 48.201172 L 11.798828 54.451172 A 1.8756007 1.8756007 0 1 0 14.451172 51.798828 L 13.207031 50.330078 L 16.857422 46.677734 A 21.1275 21.1275 0 0 0 27.5 51.089844 L 27.5 56.25 L 25.625 56.25 A 1.875 1.875 0 0 0 25.625 60 L 34.375 60 A 1.875 1.875 0 0 0 34.375 56.25 L 32.5 56.25 L 32.5 51.089844 A 21.1275 21.1275 0 0 0 43.142578 46.677734 L 46.792969 50.330078 L 45.548828 51.798828 A 1.8756007 1.8756007 0 0 0 48.201172 54.451172 L 54.451172 48.201172 A 1.8756007 1.8756007 0 1 0 51.798828 45.548828 L 50.328125 46.792969 L 46.679688 43.142578 A 21.125 21.125 0 0 0 51.089844 32.5 L 56.25 32.5 L 56.25 34.375 A 1.875 1.875 0 0 0 60 34.375 L 60 25.625 A 1.875 1.875 0 0 0 58.125 23.75 A 1.875 1.875 0 0 0 56.25 25.625 L 56.25 27.5 L 51.089844 27.5 A 21.125 21.125 0 0 0 46.677734 16.857422 L 50.328125 13.207031 L 51.798828 14.451172 A 1.8756007 1.8756007 0 1 0 54.451172 11.798828 L 48.201172 5.5488281 A 1.8756007 1.8756007 0 0 0 45.548828 8.2011719 L 46.792969 9.6699219 L 43.142578 13.322266 A 21.1275 21.1275 0 0 0 32.5 8.9101562 L 32.5 3.75 L 34.375 3.75 A 1.875 1.875 0 0 0 34.375 0 L 25.625 0 z M 23.099609 16.25 A 4.375 4.375 0 0 1 27.5 20.625 A 4.375 4.375 0 0 1 23.125 25 A 4.375 4.375 0 0 1 23.099609 16.25 z M 35.128906 16.853516 A 4.0611358 3.8765311 0 0 1 35.167969 16.853516 A 4.0611358 3.8765311 0 0 1 39.228516 20.730469 A 4.0611358 3.8765311 0 0 1 35.167969 24.607422 A 4.0611358 3.8765311 0 0 1 31.105469 20.730469 A 4.0611358 3.8765311 0 0 1 35.128906 16.853516 z M 37.490234 36.25 A 2.5 2.5 0 0 1 40 38.75 A 2.5 2.5 0 0 1 37.5 41.25 A 2.5 2.5 0 0 1 37.490234 36.25 z "
         style="fill:#ffffff;stroke-width:1.25"
         id="path386" />
    </g>
  </g>
  <g
     inkscape:groupmode="layer"
     id="layer5"
     inkscape:label="Layer 2"
     style="display:inline">
    <g
       id="g367"
       transform="matrix(0.1126401,0,0,0.1126401,0.856924,7.6578153)">
      <path
         id="path349"
         fill="#d5e8fe"
         d="m 451,120.006 c -22.032,-0.199 -43.337,11.385 -54.464,33.946 l 16.09,15.038 15.719,-14.963 c 11.969,-1.318 17.557,-3.896 23.655,-3.895 14.668,0.003 30,12.003 30,31.469 0,48.008 -43.081,90.474 -67.278,110.572 l -9.97,14.357 20.508,15.727 C 450.008,303.293 512,249.064 512,181.601 512,144.97 483.438,120.299 451,120.006 Z" />
      <path
         id="path351"
         fill="#d5e8fe"
         d="m 30,181.601 c 0,-18.963 14.809,-30.459 30,-30.509 6.103,-0.02 11.645,1.611 23.659,2.935 l 15.636,14.964 16.171,-15.037 C 104.38,131.491 83.102,120.815 61,120.996 28.988,121.259 0,144.541 0,181.6 0,249.062 61.99,303.29 86.739,322.256 l 20.51,-15.725 -9.97,-14.359 C 73.081,272.075 30,229.609 30,181.601 Z" />
      <path
         id="path353"
         fill="#76e2f8"
         d="m 407,241.996 c 0,-36.504 14.645,-70.23 21.345,-87.969 -11.569,1.276 -22.031,1.057 -31.809,-0.075 -21.196,-2.271 -42.362,-10.459 -59.863,-16.208 -23.584,-7.734 -48.988,-15.747 -80.673,-15.747 -31.685,0 -57.089,8.013 -80.673,15.747 -17.914,5.888 -38.527,13.897 -59.861,16.21 -9.778,1.13 -20.237,1.351 -31.807,0.073 9.63,24.223 21.341,53.624 21.341,87.969 0,18.358 -4.003,36.83 -7.722,50.176 -4.389,15.745 -7.315,21.899 -10.54,30.084 33.03,25.309 118.25,69.739 169.261,69.739 49.125,0 133.043,-41.981 169.259,-69.739 -3.063,-7.776 -6.096,-14.145 -10.538,-30.084 C 411.003,278.824 407,260.354 407,241.996 Z" />
      <path
         id="path355"
         fill="#66c0ee"
         d="M 414.722,292.173 C 411.003,278.825 407,260.355 407,241.997 c 0,-36.504 14.645,-70.23 21.345,-87.969 -11.569,1.276 -22.031,1.057 -31.809,-0.075 C 375.34,151.682 354.174,143.494 336.673,137.745 313.089,130.011 287.685,121.998 256,121.998 v 270 c 49.125,0 133.043,-41.981 169.259,-69.739 -3.063,-7.779 -6.095,-14.147 -10.537,-30.086 z" />
      <g
         id="g365">
        <path
           id="path357"
           fill="#9bfcff"
           d="m 331.854,199.237 -13.945,-4.497 c -20.83,-6.841 -39.833,-12.744 -61.908,-12.744 -22.075,0 -41.078,5.903 -61.967,12.759 l -13.667,4.395 c -7.91,2.476 -12.319,10.884 -9.844,18.794 2.446,7.896 10.898,12.334 18.779,9.844 l 14.15,-4.541 c 19.893,-6.533 35.263,-11.25 52.548,-11.25 17.285,0 32.655,4.717 53.705,11.616 11.483,3.503 13.599,4.937 17.666,4.937 6.387,0 12.305,-4.102 14.312,-10.518 2.475,-7.896 -1.919,-16.319 -9.829,-18.795 z" />
        <path
           id="path359"
           fill="#76e2f8"
           d="m 327.371,228.549 c 6.387,0 12.305,-4.102 14.312,-10.518 2.476,-7.896 -1.919,-16.318 -9.829,-18.794 l -13.945,-4.497 c -20.83,-6.841 -39.833,-12.744 -61.908,-12.744 v 30 c 17.285,0 32.655,4.717 53.705,11.616 11.482,3.503 13.598,4.937 17.665,4.937 z" />
        <path
           id="path361"
           fill="#9bfcff"
           d="m 335.076,289.618 c -3.574,-7.5 -12.51,-10.635 -19.995,-7.104 -25.605,12.202 -48.314,19.482 -59.081,19.482 -11.045,0 -33.139,-7.046 -58.891,-19.351 -7.456,-3.574 -16.421,-0.41 -19.995,7.075 -3.574,7.471 -0.41,16.421 7.075,19.995 30.938,14.78 55.771,22.28 71.811,22.28 19.805,0 50.526,-12.173 71.972,-22.397 7.485,-3.559 10.664,-12.509 7.104,-19.98 z" />
        <path
           id="path363"
           fill="#76e2f8"
           d="m 335.076,289.618 c -3.574,-7.5 -12.51,-10.635 -19.995,-7.104 -25.605,12.202 -48.314,19.482 -59.081,19.482 v 30 c 19.805,0 50.526,-12.173 71.972,-22.397 7.485,-3.56 10.664,-12.51 7.104,-19.981 z" />
      </g>
    </g>
  </g>
  <g
     inkscape:groupmode="layer"
     id="layer1"
     inkscape:label="Layer 1"
     style="display:inline">
    <g
       data-v-423bf9ae=""
       id="829397a9-3987-497d-b614-f17717389d33"
       transform="scale(1.25)"
       stroke="none"
       fill="white"
       style="fill:#ffffff"
       mask="url(#mask460)">
      <path
         d="M 46.5,19 C 45.671573,19 45,19.671573 45,20.5 V 22 h -4.128 c -0.36511,-3.110243 -1.58723,-6.057872 -3.53,-8.514 l 2.921,-2.921 1.176,0.996 c 1.414666,1.414998 3.536666,-0.707002 2.122,-2.122 l -5,-5 C 37.146334,3.0246658 35.024334,5.1466658 36.439,6.561 l 0.996,1.175 -2.921,2.922 C 32.057818,8.7153217 29.110217,7.493213 26,7.128 V 3 h 1.5 c 1.999999,0 1.999999,-3 0,-3 h -7 c -1.999999,0 -1.999999,3 0,3 H 22 v 4.128 c -3.110217,0.365213 -6.057818,1.5873217 -8.514,3.53 L 10.565,7.736 11.561,6.561 C 12.975334,5.146334 10.853334,3.024334 9.439,4.439 l -4.884,5 c -1.3661678,1.413146 0.7055665,3.486835 2.12,2.122 l 1.062,-0.996 2.92,2.921 C 8.7145893,15.94224 7.4928195,18.889859 7.128,22 H 3 v -1.5 c 0,-1.999999 -3,-1.999999 -3,0 v 7 c 0,1.999999 3,1.999999 3,0 V 26 h 4.128 c 0.3651104,3.110243 1.5872303,6.057872 3.53,8.514 L 7.737,37.435 6.561,36.439 C 5.146334,35.024666 3.024334,37.146666 4.439,38.561 l 5,5 c 1.414666,1.414998 3.536666,-0.707002 2.122,-2.122 l -0.996,-1.175 2.921,-2.922 c 2.456182,1.942678 5.403783,3.164787 8.514,3.53 V 45 h -1.5 c -1.999999,0 -1.999999,3 0,3 h 7 c 1.999999,0 1.999999,-3 0,-3 H 26 v -4.128 c 3.110217,-0.365213 6.057818,-1.587322 8.514,-3.53 l 2.921,2.922 -0.996,1.175 c -1.414334,1.414666 0.707666,3.536666 2.122,2.122 l 5,-5 c 1.414998,-1.414666 -0.707002,-3.536666 -2.122,-2.122 l -1.176,0.996 -2.92,-2.921 C 39.285411,32.05776 40.507181,29.110141 40.872,26 H 45 v 1.5 c 0,1.999999 3,1.999999 3,0 v -7 C 48,19.671573 47.328427,19 46.5,19 Z m -28,1 C 15.381616,20 13.820489,16.230015 16.025252,14.025252 18.230015,11.820489 22,13.381616 22,16.5 22,18.432997 20.432997,20 18.5,20 Z M 30,33 C 28.218066,33 27.325994,30.845723 28.585858,29.585858 29.845723,28.325994 32,29.218066 32,31 c 0,1.104569 -0.895431,2 -2,2 z"
         id="path280"
         style="fill:#ffffff"
         sodipodi:nodetypes="ssccccccccccccssssccccccccccccssssccccccccccccssssccccccccccccssssssssssss" />
    </g>
    <rect
       style="fill:#ffffff"
       id="rect452"
       width="25.802937"
       height="25.154314"
       x="-16.951458"
       y="14.282819"
       mask="url(#mask456)" />
  </g>
  <g
     inkscape:groupmode="layer"
     id="g468"
     inkscape:label="Layer 1 copiar copiar"
     style="display:inline">
    <g
       data-v-423bf9ae=""
       id="g466"
       transform="scale(1.25)"
       stroke="none"
       fill="white"
       style="fill:#ffffff"
       mask="url(#mask472)">
      <path
         d="M 46.5,19 A 1.5,1.5 0 0 0 45,20.5 V 22 h -4.128 a 16.9,16.9 0 0 0 -3.53,-8.514 l 2.921,-2.921 1.176,0.996 a 1.5004806,1.5004806 0 1 0 2.122,-2.122 l -5,-5 a 1.5004806,1.5004806 0 0 0 -2.122,2.122 l 0.996,1.175 -2.921,2.922 A 16.902,16.902 0 0 0 26,7.128 V 3 h 1.5 a 1.5,1.5 0 0 0 0,-3 h -7 a 1.5,1.5 0 0 0 0,3 H 22 v 4.128 a 16.902,16.902 0 0 0 -8.514,3.53 L 10.565,7.736 11.561,6.561 A 1.5004806,1.5004806 0 0 0 9.439,4.439 l -4.884,5 a 1.5,1.5 0 0 0 2.12,2.122 l 1.062,-0.996 2.92,2.921 A 16.9,16.9 0 0 0 7.128,22 H 3 v -1.5 a 1.5,1.5 0 0 0 -3,0 v 7 a 1.5,1.5 0 0 0 3,0 V 26 h 4.128 a 16.9,16.9 0 0 0 3.53,8.514 L 7.737,37.435 6.561,36.439 a 1.5004806,1.5004806 0 0 0 -2.122,2.122 l 5,5 a 1.5004806,1.5004806 0 1 0 2.122,-2.122 l -0.996,-1.175 2.921,-2.922 A 16.902,16.902 0 0 0 22,40.872 V 45 h -1.5 a 1.5,1.5 0 0 0 0,3 h 7 a 1.5,1.5 0 0 0 0,-3 H 26 v -4.128 a 16.902,16.902 0 0 0 8.514,-3.53 l 2.921,2.922 -0.996,1.175 a 1.5004806,1.5004806 0 0 0 2.122,2.122 l 5,-5 a 1.5004806,1.5004806 0 1 0 -2.122,-2.122 l -1.176,0.996 -2.92,-2.921 A 16.9,16.9 0 0 0 40.872,26 H 45 v 1.5 a 1.5,1.5 0 0 0 3,0 v -7 A 1.5,1.5 0 0 0 46.5,19 Z m -28,1 A 3.5,3.5 0 1 1 22,16.5 3.5,3.5 0 0 1 18.5,20 Z M 30,33 a 2,2 0 1 1 2,-2 2,2 0 0 1 -2,2 z"
         id="path464"
         style="fill:#ffffff" />
    </g>
  </g>
</svg>
