<svg data-v-423bf9ae="" xmlns="http://www.w3.org/2000/svg" viewBox="0 0 117.27272727272727 60" class="icon"><!----><!----><!----><!----><g data-v-423bf9ae="" id="6e99b7e3-2a9a-4b89-8eb0-a444d0ca6dae" transform="matrix(1.3636363636363635,0,0,1.3636363636363635,-10.909091039137408,-23.18181818181818)" stroke="none" fill="white"><path style="marker:none" d="M90 17a4 4 0 1 0 0 8 4 4 0 0 0 0-8zm-34 8a4 4 0 1 0 0 8 4 4 0 0 0 0-8zm29.594.031L72.25 45.438a6.16 6.16 0 0 1 3.031 2.718l13.875-21.218c-1.403-.201-2.642-.903-3.562-1.907zM32 29a4 4 0 1 0 0 8 4 4 0 0 0 0-8zm29.25 2.875a6.132 6.132 0 0 1-3.031 2.688l7.406 12.374a5.976 5.976 0 0 1 3.563-1.874L61.25 31.874zm-9.469 1.344L44.656 51.03c1.391.151 2.617.805 3.563 1.75l7.125-17.812c-1.391-.151-2.617-.805-3.563-1.75zM26.25 34.656l-12.188 9.719A6.111 6.111 0 0 1 17.189 47l11.375-9.094a6.044 6.044 0 0 1-2.313-3.25zm10 2.532c-.941.955-2.169 1.622-3.563 1.78l6.47 14.532a6.028 6.028 0 0 1 3.343-2.281l-6.25-14.032zM12 46a4 4 0 1 0 0 8 4 4 0 0 0 0-8zm58 1a4 4 0 1 0 0 8 4 4 0 0 0 0-8zm-26 6a4 4 0 1 0 0 8 4 4 0 0 0 0-8z" color="#000" overflow="visible"></path></g><!----></svg>