<svg data-v-423bf9ae="" xmlns="http://www.w3.org/2000/svg" viewBox="0 0 773 90" class="iconLeft"><!----><!----><!----><g data-v-423bf9ae="" id="7448e7dd-3c9f-429b-9934-38f8466048bb" fill="#048ABF" transform="matrix(6.054490506946714,0,0,6.054490506946714,189.67295595464952,-2.134207672738235)"><path d="M5.46 12.67L1.03 12.67L1.03 2.90L5.61 2.90L5.61 2.90Q8.39 2.90 8.39 5.17L8.39 5.17L8.39 5.17Q8.39 6.84 6.58 7.56L6.58 7.56L6.58 7.56Q8.52 7.92 8.52 9.78L8.52 9.78L8.52 9.78Q8.52 12.67 5.46 12.67L5.46 12.67ZM2.84 11.10L5.39 11.10L5.39 11.10Q6.59 11.10 6.59 9.87L6.59 9.87L6.59 9.87Q6.59 8.35 4.79 8.35L4.79 8.35L4.25 8.35L4.25 7.18L4.25 7.18Q6.50 6.80 6.50 5.29L6.50 5.29L6.50 5.29Q6.50 4.47 5.49 4.47L5.49 4.47L2.84 4.47L2.84 11.10ZM11.35 9.06L11.35 9.06Q11.35 11.31 13.10 11.31L13.10 11.31L13.10 11.31Q14.84 11.31 14.84 9.06L14.84 9.06L14.84 9.06Q14.84 6.86 13.10 6.86L13.10 6.86L13.10 6.86Q11.35 6.86 11.35 9.06L11.35 9.06ZM9.54 9.08L9.54 9.08L9.54 9.08Q9.54 5.48 13.10 5.48L13.10 5.48L13.10 5.48Q16.65 5.48 16.65 9.08L16.65 9.08L16.65 9.08Q16.65 12.69 13.10 12.69L13.10 12.69L13.10 12.69Q9.56 12.69 9.54 9.08ZM18.02 2.90L19.83 2.90L19.83 12.67L18.02 12.67L18.02 2.90ZM24.57 5.50L24.57 5.50L24.57 5.50Q27.84 5.50 27.84 8.83L27.84 8.83L27.84 8.83Q27.84 9.28 27.77 9.72L27.77 9.72L23.01 9.72L23.01 9.72Q23.01 11.24 25.24 11.24L25.24 11.24L25.24 11.24Q26.33 11.24 27.41 11.03L27.41 11.03L27.41 12.47L27.41 12.47Q26.46 12.67 25.10 12.67L25.10 12.67L25.10 12.67Q21.20 12.67 21.20 9.00L21.20 9.00L21.20 9.00Q21.20 5.50 24.57 5.50ZM23.01 8.46L23.01 8.46L26.07 8.46L26.07 8.41L26.07 8.41Q26.07 6.92 24.57 6.92L24.57 6.92L24.57 6.92Q23.13 6.92 23.01 8.46ZM29.09 10.74L29.09 4.33L30.43 4.33L30.71 5.50L32.51 5.50L32.51 6.93L30.91 6.93L30.91 10.23L30.91 10.23Q30.91 11.24 31.77 11.24L31.77 11.24L32.51 11.24L32.51 12.67L30.90 12.67L30.90 12.67Q29.09 12.67 29.09 10.74L29.09 10.74ZM33.74 2.90L35.55 2.90L35.55 4.33L33.74 4.33L33.74 2.90ZM33.74 5.50L35.55 5.50L35.55 12.67L33.74 12.67L33.74 5.50ZM39.07 12.67L37.26 12.67L37.26 5.50L38.66 5.50L38.88 6.54L38.88 6.54Q39.84 5.50 41.19 5.50L41.19 5.50L41.19 5.50Q42.55 5.50 43.05 6.48L43.05 6.48L43.05 6.48Q44.15 5.50 45.35 5.50L45.35 5.50L45.35 5.50Q47.82 5.50 47.82 8.22L47.82 8.22L47.82 12.67L46.01 12.67L46.01 8.16L46.01 8.16Q46.01 6.96 44.93 6.96L44.93 6.96L44.93 6.96Q44.13 6.96 43.38 7.68L43.38 7.68L43.38 12.67L41.57 12.67L41.57 8.18L41.57 8.18Q41.57 6.96 40.57 6.96L40.57 6.96L40.57 6.96Q39.78 6.96 39.07 7.68L39.07 7.68L39.07 12.67ZM60.57 10.62L60.57 12.26L60.57 12.26Q59.31 12.74 57.70 12.74L57.70 12.74L57.70 12.74Q52.44 12.74 52.44 7.65L52.44 7.65L52.44 7.65Q52.44 2.83 57.70 2.83L57.70 2.83L57.70 2.83Q59.31 2.83 60.57 3.31L60.57 3.31L60.57 4.95L60.57 4.95Q59.31 4.40 57.84 4.40L57.84 4.40L57.84 4.40Q54.32 4.40 54.32 7.65L54.32 7.65L54.32 7.65Q54.32 11.17 57.84 11.17L57.84 11.17L57.84 11.17Q59.31 11.17 60.57 10.62L60.57 10.62ZM63.82 7.76L63.82 7.76Q63.82 11.17 66.85 11.17L66.85 11.17L66.85 11.17Q69.80 11.17 69.80 7.76L69.80 7.76L69.80 7.76Q69.80 4.40 66.85 4.40L66.85 4.40L66.85 4.40Q63.82 4.40 63.82 7.76L63.82 7.76ZM61.94 7.80L61.94 7.80L61.94 7.80Q61.94 2.83 66.85 2.83L66.85 2.83L66.85 2.83Q71.68 2.83 71.68 7.80L71.68 7.80L71.68 7.80Q71.68 12.74 66.85 12.74L66.85 12.74L66.85 12.74Q62.16 12.74 61.94 7.80ZM80.57 2.90L82.70 2.90L78.42 12.67L76.47 12.67L72.37 2.90L74.52 2.90L77.55 10.38L80.57 2.90ZM83.73 2.90L85.54 2.90L85.54 12.67L83.73 12.67L83.73 2.90ZM89.40 11.10L91.42 11.10L91.42 11.10Q94.46 11.10 94.46 7.52L94.46 7.52L94.46 7.52Q94.46 4.47 91.42 4.47L91.42 4.47L89.40 4.47L89.40 11.10ZM91.42 12.67L87.59 12.67L87.59 2.90L91.42 2.90L91.42 2.90Q96.27 2.90 96.27 7.52L96.27 7.52L96.27 7.52Q96.27 12.67 91.42 12.67L91.42 12.67Z"></path></g><!----><g data-v-423bf9ae="" id="6abeab4f-afdd-4f8a-a3e6-a349ce9d84d3" transform="matrix(2.0454545454545454,0,0,2.0454545454545454,-16.318181818181813,-34.772727272727266)" stroke="none" fill="#049DD9"><path style="marker:none" d="M90 17a4 4 0 1 0 0 8 4 4 0 0 0 0-8zm-34 8a4 4 0 1 0 0 8 4 4 0 0 0 0-8zm29.594.031L72.25 45.438a6.16 6.16 0 0 1 3.031 2.718l13.875-21.218c-1.403-.201-2.642-.903-3.562-1.907zM32 29a4 4 0 1 0 0 8 4 4 0 0 0 0-8zm29.25 2.875a6.132 6.132 0 0 1-3.031 2.688l7.406 12.374a5.976 5.976 0 0 1 3.563-1.874L61.25 31.874zm-9.469 1.344L44.656 51.03c1.391.151 2.617.805 3.563 1.75l7.125-17.812c-1.391-.151-2.617-.805-3.563-1.75zM26.25 34.656l-12.188 9.719A6.111 6.111 0 0 1 17.189 47l11.375-9.094a6.044 6.044 0 0 1-2.313-3.25zm10 2.532c-.941.955-2.169 1.622-3.563 1.78l6.47 14.532a6.028 6.028 0 0 1 3.343-2.281l-6.25-14.032zM12 46a4 4 0 1 0 0 8 4 4 0 0 0 0-8zm58 1a4 4 0 1 0 0 8 4 4 0 0 0 0-8zm-26 6a4 4 0 1 0 0 8 4 4 0 0 0 0-8z" color="#000" overflow="visible"></path></g><!----></svg>